REM DIRINDEX 1\2,1\3,1\4
REM DIRNAME cjc090,folder01,folder02,folder03
TITLE ""
FILE "Track4.mp3" MP3
  TRACK 01 AUDIO
    TITLE "0:"
    INDEX 01 00:00:00
  TRACK 02 AUDIO
    TITLE "4:cjc090_1221"
    INDEX 01 00:00:23
  TRACK 03 AUDIO
    TITLE "0:"
    INDEX 01 00:06:24
  TRACK 04 AUDIO
    TITLE "3:cjc090_1222"
    INDEX 01 00:07:23
  TRACK 05 AUDIO
    TITLE "2:cjc090_1223"
    INDEX 01 00:08:34
  TRACK 06 AUDIO
    TITLE "0:"
    INDEX 01 00:10:04
  TRACK 07 AUDIO
    TITLE "3:cjc090_1224"
    INDEX 01 00:10:25
  TRACK 08 AUDIO
    TITLE "2:cjc090_1225"
    INDEX 01 00:11:37
  TRACK 09 AUDIO
    TITLE "0:"
    INDEX 01 00:12:44
  TRACK 10 AUDIO
    TITLE "3:cjc090_1226"
    INDEX 01 00:12:63
  TRACK 11 AUDIO
    TITLE "2:cjc090_1227"
    INDEX 01 00:14:04
  TRACK 12 AUDIO
    TITLE "0:"
    INDEX 01 00:15:19
  TRACK 13 AUDIO
    TITLE "3:cjc090_1228"
    INDEX 01 00:15:40
  TRACK 14 AUDIO
    TITLE "2:cjc090_1229"
    INDEX 01 00:16:48
  TRACK 15 AUDIO
    TITLE "0:"
    INDEX 01 00:18:25
  TRACK 16 AUDIO
    TITLE "3:cjc090_1230"
    INDEX 01 00:18:44
  TRACK 17 AUDIO
    TITLE "2:cjc090_1231"
    INDEX 01 00:19:63
  TRACK 18 AUDIO
    TITLE "0:"
    INDEX 01 00:20:67
  TRACK 19 AUDIO
    TITLE "3:cjc090_1232"
    INDEX 01 00:21:11
  TRACK 20 AUDIO
    TITLE "2:cjc090_1233"
    INDEX 01 00:22:38
  TRACK 21 AUDIO
    TITLE "0:"
    INDEX 01 00:23:42
  TRACK 22 AUDIO
    TITLE "3:cjc090_1234"
    INDEX 01 00:23:63
  TRACK 23 AUDIO
    TITLE "2:cjc090_1235"
    INDEX 01 00:25:05
  TRACK 24 AUDIO
    TITLE "0:"
    INDEX 01 00:26:18
  TRACK 25 AUDIO
    TITLE "3:cjc090_1236"
    INDEX 01 00:26:40
  TRACK 26 AUDIO
    TITLE "2:cjc090_1237"
    INDEX 01 00:27:61
  TRACK 27 AUDIO
    TITLE "0:"
    INDEX 01 00:28:72
  TRACK 28 AUDIO
    TITLE "3:cjc090_1238"
    INDEX 01 00:29:17
  TRACK 29 AUDIO
    TITLE "2:cjc090_1239"
    INDEX 01 00:30:24
  TRACK 30 AUDIO
    TITLE "0:"
    INDEX 01 00:32:17
  TRACK 31 AUDIO
    TITLE "3:cjc090_1240"
    INDEX 01 00:32:37
  TRACK 32 AUDIO
    TITLE "2:cjc090_1241"
    INDEX 01 00:33:50
  TRACK 33 AUDIO
    TITLE "0:"
    INDEX 01 00:35:21
  TRACK 34 AUDIO
    TITLE "3:cjc090_1242"
    INDEX 01 00:35:41
  TRACK 35 AUDIO
    TITLE "2:cjc090_1243"
    INDEX 01 00:36:52
  TRACK 36 AUDIO
    TITLE "0:"
    INDEX 01 00:37:52
  TRACK 37 AUDIO
    TITLE "3:cjc090_1244"
    INDEX 01 00:37:71
  TRACK 38 AUDIO
    TITLE "2:cjc090_1245"
    INDEX 01 00:39:33
  TRACK 39 AUDIO
    TITLE "0:"
    INDEX 01 00:40:44
  TRACK 40 AUDIO
    TITLE "3:cjc090_1246"
    INDEX 01 00:40:64
  TRACK 41 AUDIO
    TITLE "2:cjc090_1247"
    INDEX 01 00:42:06
  TRACK 42 AUDIO
    TITLE "0:"
    INDEX 01 00:43:60
  TRACK 43 AUDIO
    TITLE "3:cjc090_1248"
    INDEX 01 00:44:05
  TRACK 44 AUDIO
    TITLE "2:cjc090_1249"
    INDEX 01 00:45:32
  TRACK 45 AUDIO
    TITLE "0:"
    INDEX 01 00:47:28
  TRACK 46 AUDIO
    TITLE "3:cjc090_1250"
    INDEX 01 00:47:48
  TRACK 47 AUDIO
    TITLE "2:cjc090_1251"
    INDEX 01 00:48:67
  TRACK 48 AUDIO
    TITLE "0:"
    INDEX 01 00:50:03
  TRACK 49 AUDIO
    TITLE "3:cjc090_1252"
    INDEX 01 00:50:23
  TRACK 50 AUDIO
    TITLE "2:cjc090_1253"
    INDEX 01 00:51:36
  TRACK 51 AUDIO
    TITLE "0:"
    INDEX 01 00:52:45
  TRACK 52 AUDIO
    TITLE "3:cjc090_1254"
    INDEX 01 00:52:65
  TRACK 53 AUDIO
    TITLE "2:cjc090_1255"
    INDEX 01 00:54:09
  TRACK 54 AUDIO
    TITLE "0:"
    INDEX 01 00:55:14
  TRACK 55 AUDIO
    TITLE "3:cjc090_1256"
    INDEX 01 00:55:34
  TRACK 56 AUDIO
    TITLE "2:cjc090_1257"
    INDEX 01 00:56:35
  TRACK 57 AUDIO
    TITLE "0:"
    INDEX 01 00:57:27
  TRACK 58 AUDIO
    TITLE "3:cjc090_1258"
    INDEX 01 00:57:46
  TRACK 59 AUDIO
    TITLE "2:cjc090_1259"
    INDEX 01 00:59:04
  TRACK 60 AUDIO
    TITLE "0:"
    INDEX 01 00:59:71
  TRACK 61 AUDIO
    TITLE "3:cjc090_1260"
    INDEX 01 01:00:17
  TRACK 62 AUDIO
    TITLE "2:cjc090_1261"
    INDEX 01 01:01:36
  TRACK 63 AUDIO
    TITLE "0:"
    INDEX 01 01:03:26
  TRACK 64 AUDIO
    TITLE "3:cjc090_1262"
    INDEX 01 01:03:45
  TRACK 65 AUDIO
    TITLE "2:cjc090_1263"
    INDEX 01 01:04:62
  TRACK 66 AUDIO
    TITLE "0:"
    INDEX 01 01:06:53
  TRACK 67 AUDIO
    TITLE "3:cjc090_1264"
    INDEX 01 01:06:73
  TRACK 68 AUDIO
    TITLE "2:cjc090_1265"
    INDEX 01 01:08:42
  TRACK 69 AUDIO
    TITLE "0:"
    INDEX 01 01:10:49
  TRACK 70 AUDIO
    TITLE "3:cjc090_1266"
    INDEX 01 01:10:69
  TRACK 71 AUDIO
    TITLE "2:cjc090_1267"
    INDEX 01 01:12:05
  TRACK 72 AUDIO
    TITLE "0:"
    INDEX 01 01:13:04
  TRACK 73 AUDIO
    TITLE "3:cjc090_1268"
    INDEX 01 01:13:24
  TRACK 74 AUDIO
    TITLE "2:cjc090_1269"
    INDEX 01 01:14:29
  TRACK 75 AUDIO
    TITLE "0:"
    INDEX 01 01:15:39
  TRACK 76 AUDIO
    TITLE "3:cjc090_1270"
    INDEX 01 01:15:58
  TRACK 77 AUDIO
    TITLE "2:cjc090_1271"
    INDEX 01 01:16:67
  TRACK 78 AUDIO
    TITLE "0:"
    INDEX 01 01:18:07
  TRACK 79 AUDIO
    TITLE "3:cjc090_1272"
    INDEX 01 01:18:27
  TRACK 80 AUDIO
    TITLE "2:cjc090_1273"
    INDEX 01 01:19:32
  TRACK 81 AUDIO
    TITLE "0:"
    INDEX 01 01:20:46
  TRACK 82 AUDIO
    TITLE "3:cjc090_1274"
    INDEX 01 01:20:63
  TRACK 83 AUDIO
    TITLE "2:cjc090_1275"
    INDEX 01 01:21:70
  TRACK 84 AUDIO
    TITLE "0:"
    INDEX 01 01:23:07
  TRACK 85 AUDIO
    TITLE "3:cjc090_1276"
    INDEX 01 01:23:30
  TRACK 86 AUDIO
    TITLE "2:cjc090_1277"
    INDEX 01 01:24:47
  TRACK 87 AUDIO
    TITLE "0:"
    INDEX 01 01:26:50
  TRACK 88 AUDIO
    TITLE "3:cjc090_1278"
    INDEX 01 01:26:72
  TRACK 89 AUDIO
    TITLE "2:cjc090_1279"
    INDEX 01 01:28:24
  TRACK 90 AUDIO
    TITLE "0:"
    INDEX 01 01:29:33
  TRACK 91 AUDIO
    TITLE "3:cjc090_1280"
    INDEX 01 01:29:54
  TRACK 92 AUDIO
    TITLE "2:cjc090_1281"
    INDEX 01 01:30:73
  TRACK 93 AUDIO
    TITLE "0:"
    INDEX 01 01:32:17
  TRACK 94 AUDIO
    TITLE "3:cjc090_1282"
    INDEX 01 01:32:39
  TRACK 95 AUDIO
    TITLE "2:cjc090_1283"
    INDEX 01 01:33:74
  TRACK 96 AUDIO
    TITLE "0:"
    INDEX 01 01:35:59
  TRACK 97 AUDIO
    TITLE "3:cjc090_1284"
    INDEX 01 01:36:03
  TRACK 98 AUDIO
    TITLE "2:cjc090_1285"
    INDEX 01 01:37:15
  TRACK 99 AUDIO
    TITLE "0:"
    INDEX 01 01:38:42
  TRACK 100 AUDIO
    TITLE "3:cjc090_1286"
    INDEX 01 01:38:63
  TRACK 101 AUDIO
    TITLE "2:cjc090_1287"
    INDEX 01 01:40:17
  TRACK 102 AUDIO
    TITLE "0:"
    INDEX 01 01:42:08
  TRACK 103 AUDIO
    TITLE "3:cjc090_1288"
    INDEX 01 01:42:28
  TRACK 104 AUDIO
    TITLE "2:cjc090_1289"
    INDEX 01 01:43:52
  TRACK 105 AUDIO
    TITLE "0:"
    INDEX 01 01:45:18
  TRACK 106 AUDIO
    TITLE "3:cjc090_1290"
    INDEX 01 01:45:38
  TRACK 107 AUDIO
    TITLE "2:cjc090_1291"
    INDEX 01 01:46:66
  TRACK 108 AUDIO
    TITLE "0:"
    INDEX 01 01:47:72
  TRACK 109 AUDIO
    TITLE "3:cjc090_1292"
    INDEX 01 01:48:18
  TRACK 110 AUDIO
    TITLE "2:cjc090_1293"
    INDEX 01 01:49:71
  TRACK 111 AUDIO
    TITLE "0:"
    INDEX 01 01:52:04
  TRACK 112 AUDIO
    TITLE "3:cjc090_1294"
    INDEX 01 01:52:24
  TRACK 113 AUDIO
    TITLE "2:cjc090_1295"
    INDEX 01 01:53:43
  TRACK 114 AUDIO
    TITLE "0:"
    INDEX 01 01:55:15
  TRACK 115 AUDIO
    TITLE "3:cjc090_1296"
    INDEX 01 01:55:36
  TRACK 116 AUDIO
    TITLE "2:cjc090_1297"
    INDEX 01 01:56:32
  TRACK 117 AUDIO
    TITLE "0:"
    INDEX 01 01:57:45
  TRACK 118 AUDIO
    TITLE "3:cjc090_1298"
    INDEX 01 01:57:68
  TRACK 119 AUDIO
    TITLE "2:cjc090_1299"
    INDEX 01 01:59:08
  TRACK 120 AUDIO
    TITLE "0:"
    INDEX 01 02:01:01
  TRACK 121 AUDIO
    TITLE "3:cjc090_1300"
    INDEX 01 02:01:21
  TRACK 122 AUDIO
    TITLE "2:cjc090_1301"
    INDEX 01 02:02:46
  TRACK 123 AUDIO
    TITLE "0:"
    INDEX 01 02:04:29
  TRACK 124 AUDIO
    TITLE "3:cjc090_1302"
    INDEX 01 02:04:51
  TRACK 125 AUDIO
    TITLE "2:cjc090_1303"
    INDEX 01 02:05:68
  TRACK 126 AUDIO
    TITLE "0:"
    INDEX 01 02:08:03
  TRACK 127 AUDIO
    TITLE "3:cjc090_1304"
    INDEX 01 02:08:23
  TRACK 128 AUDIO
    TITLE "2:cjc090_1305"
    INDEX 01 02:09:32
  TRACK 129 AUDIO
    TITLE "0:"
    INDEX 01 02:10:28
  TRACK 130 AUDIO
    TITLE "3:cjc090_1306"
    INDEX 01 02:10:47
  TRACK 131 AUDIO
    TITLE "2:cjc090_1307"
    INDEX 01 02:11:70
  TRACK 132 AUDIO
    TITLE "0:"
    INDEX 01 02:13:32
  TRACK 133 AUDIO
    TITLE "3:cjc090_1308"
    INDEX 01 02:13:52
  TRACK 134 AUDIO
    TITLE "2:cjc090_1309"
    INDEX 01 02:15:03
  TRACK 135 AUDIO
    TITLE "0:"
    INDEX 01 02:16:42
  TRACK 136 AUDIO
    TITLE "3:cjc090_1310"
    INDEX 01 02:16:62
  TRACK 137 AUDIO
    TITLE "2:cjc090_1311"
    INDEX 01 02:18:04
  TRACK 138 AUDIO
    TITLE "0:"
    INDEX 01 02:20:20
  TRACK 139 AUDIO
    TITLE "3:cjc090_1312"
    INDEX 01 02:20:40
  TRACK 140 AUDIO
    TITLE "2:cjc090_1313"
    INDEX 01 02:21:67
  TRACK 141 AUDIO
    TITLE "0:"
    INDEX 01 02:23:46
  TRACK 142 AUDIO
    TITLE "3:cjc090_1314"
    INDEX 01 02:23:66
  TRACK 143 AUDIO
    TITLE "2:cjc090_1315"
    INDEX 01 02:24:67
  TRACK 144 AUDIO
    TITLE "0:"
    INDEX 01 02:25:70
  TRACK 145 AUDIO
    TITLE "3:cjc090_1316"
    INDEX 01 02:26:15
  TRACK 146 AUDIO
    TITLE "2:cjc090_1317"
    INDEX 01 02:27:09
  TRACK 147 AUDIO
    TITLE "0:"
    INDEX 01 02:28:06
  TRACK 148 AUDIO
    TITLE "3:cjc090_1318"
    INDEX 01 02:28:26
  TRACK 149 AUDIO
    TITLE "2:cjc090_1319"
    INDEX 01 02:29:62
  TRACK 150 AUDIO
    TITLE "0:"
    INDEX 01 02:30:60
  TRACK 151 AUDIO
    TITLE "3:cjc090_1320"
    INDEX 01 02:31:06
  TRACK 152 AUDIO
    TITLE "2:cjc090_1321"
    INDEX 01 02:32:25
  TRACK 153 AUDIO
    TITLE "0:"
    INDEX 01 02:34:01
  TRACK 154 AUDIO
    TITLE "3:cjc090_1322"
    INDEX 01 02:34:20
  TRACK 155 AUDIO
    TITLE "2:cjc090_1323"
    INDEX 01 02:35:41
  TRACK 156 AUDIO
    TITLE "0:"
    INDEX 01 02:36:51
  TRACK 157 AUDIO
    TITLE "3:cjc090_1324"
    INDEX 01 02:36:72
  TRACK 158 AUDIO
    TITLE "2:cjc090_1325"
    INDEX 01 02:38:12
  TRACK 159 AUDIO
    TITLE "0:"
    INDEX 01 02:39:24
  TRACK 160 AUDIO
    TITLE "3:cjc090_1326"
    INDEX 01 02:39:43
  TRACK 161 AUDIO
    TITLE "2:cjc090_1327"
    INDEX 01 02:40:56
  TRACK 162 AUDIO
    TITLE "0:"
    INDEX 01 02:42:08
  TRACK 163 AUDIO
    TITLE "3:cjc090_1328"
    INDEX 01 02:42:28
  TRACK 164 AUDIO
    TITLE "2:cjc090_1329"
    INDEX 01 02:43:45
  TRACK 165 AUDIO
    TITLE "0:"
    INDEX 01 02:45:46
  TRACK 166 AUDIO
    TITLE "3:cjc090_1330"
    INDEX 01 02:45:65
  TRACK 167 AUDIO
    TITLE "2:cjc090_1331"
    INDEX 01 02:47:25
  TRACK 168 AUDIO
    TITLE "0:"
    INDEX 01 02:48:48
  TRACK 169 AUDIO
    TITLE "3:cjc090_1332"
    INDEX 01 02:48:70
  TRACK 170 AUDIO
    TITLE "2:cjc090_1333"
    INDEX 01 02:50:14
  TRACK 171 AUDIO
    TITLE "0:"
    INDEX 01 02:51:60
  TRACK 172 AUDIO
    TITLE "3:cjc090_1334"
    INDEX 01 02:52:05
  TRACK 173 AUDIO
    TITLE "2:cjc090_1335"
    INDEX 01 02:53:20
  TRACK 174 AUDIO
    TITLE "0:"
    INDEX 01 02:54:70
  TRACK 175 AUDIO
    TITLE "3:cjc090_1336"
    INDEX 01 02:55:17
  TRACK 176 AUDIO
    TITLE "2:cjc090_1337"
    INDEX 01 02:56:36
  TRACK 177 AUDIO
    TITLE "0:"
    INDEX 01 02:58:19
  TRACK 178 AUDIO
    TITLE "3:cjc090_1338"
    INDEX 01 02:58:39
  TRACK 179 AUDIO
    TITLE "2:cjc090_1339"
    INDEX 01 02:59:54
  TRACK 180 AUDIO
    TITLE "0:"
    INDEX 01 03:01:43
  TRACK 181 AUDIO
    TITLE "3:cjc090_1340"
    INDEX 01 03:01:62
  TRACK 182 AUDIO
    TITLE "2:cjc090_1341"
    INDEX 01 03:03:12
  TRACK 183 AUDIO
    TITLE "0:"
    INDEX 01 03:04:63
  TRACK 184 AUDIO
    TITLE "3:cjc090_1342"
    INDEX 01 03:05:09
  TRACK 185 AUDIO
    TITLE "2:cjc090_1343"
    INDEX 01 03:06:30
  TRACK 186 AUDIO
    TITLE "0:"
    INDEX 01 03:08:12
  TRACK 187 AUDIO
    TITLE "3:cjc090_1344"
    INDEX 01 03:08:31
  TRACK 188 AUDIO
    TITLE "2:cjc090_1345"
    INDEX 01 03:09:58
  TRACK 189 AUDIO
    TITLE "0:"
    INDEX 01 03:10:71
  TRACK 190 AUDIO
    TITLE "3:cjc090_1346"
    INDEX 01 03:11:16
  TRACK 191 AUDIO
    TITLE "2:cjc090_1347"
    INDEX 01 03:12:35
  TRACK 192 AUDIO
    TITLE "0:"
    INDEX 01 03:13:50
  TRACK 193 AUDIO
    TITLE "3:cjc090_1348"
    INDEX 01 03:13:69
  TRACK 194 AUDIO
    TITLE "2:cjc090_1349"
    INDEX 01 03:15:15
  TRACK 195 AUDIO
    TITLE "0:"
    INDEX 01 03:16:19
  TRACK 196 AUDIO
    TITLE "3:cjc090_1350"
    INDEX 01 03:16:40
  TRACK 197 AUDIO
    TITLE "2:cjc090_1351"
    INDEX 01 03:17:42
  TRACK 198 AUDIO
    TITLE "0:"
    INDEX 01 03:18:49
  TRACK 199 AUDIO
    TITLE "3:cjc090_1352"
    INDEX 01 03:18:69
  TRACK 200 AUDIO
    TITLE "2:cjc090_1353"
    INDEX 01 03:20:19
  TRACK 201 AUDIO
    TITLE "0:"
    INDEX 01 03:21:42
  TRACK 202 AUDIO
    TITLE "3:cjc090_1354"
    INDEX 01 03:21:61
  TRACK 203 AUDIO
    TITLE "2:cjc090_1355"
    INDEX 01 03:23:07
  TRACK 204 AUDIO
    TITLE "0:"
    INDEX 01 03:25:06
  TRACK 205 AUDIO
    TITLE "3:cjc090_1356"
    INDEX 01 03:25:26
  TRACK 206 AUDIO
    TITLE "2:cjc090_1357"
    INDEX 01 03:26:39
  TRACK 207 AUDIO
    TITLE "0:"
    INDEX 01 03:28:10
  TRACK 208 AUDIO
    TITLE "3:cjc090_1358"
    INDEX 01 03:28:30
  TRACK 209 AUDIO
    TITLE "2:cjc090_1359"
    INDEX 01 03:29:43
  TRACK 210 AUDIO
    TITLE "0:"
    INDEX 01 03:31:30
  TRACK 211 AUDIO
    TITLE "3:cjc090_1360"
    INDEX 01 03:31:50
  TRACK 212 AUDIO
    TITLE "2:cjc090_1361"
    INDEX 01 03:32:55
  TRACK 213 AUDIO
    TITLE "0:"
    INDEX 01 03:33:62
  TRACK 214 AUDIO
    TITLE "3:cjc090_1362"
    INDEX 01 03:34:07
  TRACK 215 AUDIO
    TITLE "2:cjc090_1363"
    INDEX 01 03:35:30
  TRACK 216 AUDIO
    TITLE "0:"
    INDEX 01 03:36:43
  TRACK 217 AUDIO
    TITLE "3:cjc090_1364"
    INDEX 01 03:36:65
  TRACK 218 AUDIO
    TITLE "2:cjc090_1365"
    INDEX 01 03:37:70
  TRACK 219 AUDIO
    TITLE "0:"
    INDEX 01 03:39:55
  TRACK 220 AUDIO
    TITLE "3:cjc090_1366"
    INDEX 01 03:40:00
  TRACK 221 AUDIO
    TITLE "2:cjc090_1367"
    INDEX 01 03:41:21
  TRACK 222 AUDIO
    TITLE "0:"
    INDEX 01 03:43:71
  TRACK 223 AUDIO
    TITLE "3:cjc090_1368"
    INDEX 01 03:44:15
  TRACK 224 AUDIO
    TITLE "2:cjc090_1369"
    INDEX 01 03:45:34
  TRACK 225 AUDIO
    TITLE "0:"
    INDEX 01 03:46:45
  TRACK 226 AUDIO
    TITLE "3:cjc090_1370"
    INDEX 01 03:46:65
  TRACK 227 AUDIO
    TITLE "2:cjc090_1371"
    INDEX 01 03:48:13
  TRACK 228 AUDIO
    TITLE "0:"
    INDEX 01 03:50:00
  TRACK 229 AUDIO
    TITLE "3:cjc090_1372"
    INDEX 01 03:50:18
  TRACK 230 AUDIO
    TITLE "2:cjc090_1373"
    INDEX 01 03:51:43
  TRACK 231 AUDIO
    TITLE "0:"
    INDEX 01 03:52:58
  TRACK 232 AUDIO
    TITLE "3:cjc090_1374"
    INDEX 01 03:53:02
  TRACK 233 AUDIO
    TITLE "2:cjc090_1375"
    INDEX 01 03:54:29
  TRACK 234 AUDIO
    TITLE "0:"
    INDEX 01 03:56:38
  TRACK 235 AUDIO
    TITLE "3:cjc090_1376"
    INDEX 01 03:56:60
  TRACK 236 AUDIO
    TITLE "2:cjc090_1377"
    INDEX 01 03:58:13
  TRACK 237 AUDIO
    TITLE "0:"
    INDEX 01 03:59:74
  TRACK 238 AUDIO
    TITLE "3:cjc090_1378"
    INDEX 01 04:00:18
  TRACK 239 AUDIO
    TITLE "2:cjc090_1379"
    INDEX 01 04:01:29
  TRACK 240 AUDIO
    TITLE "0:"
    INDEX 01 04:02:42
  TRACK 241 AUDIO
    TITLE "3:cjc090_1380"
    INDEX 01 04:02:64
  TRACK 242 AUDIO
    TITLE "2:cjc090_1381"
    INDEX 01 04:03:71
  TRACK 243 AUDIO
    TITLE "0:"
    INDEX 01 04:05:66
  TRACK 244 AUDIO
    TITLE "3:cjc090_1382"
    INDEX 01 04:06:11
  TRACK 245 AUDIO
    TITLE "2:cjc090_1383"
    INDEX 01 04:07:48
  TRACK 246 AUDIO
    TITLE "0:"
    INDEX 01 04:08:61
  TRACK 247 AUDIO
    TITLE "3:cjc090_1384"
    INDEX 01 04:09:07
  TRACK 248 AUDIO
    TITLE "2:cjc090_1385"
    INDEX 01 04:10:26
  TRACK 249 AUDIO
    TITLE "0:"
    INDEX 01 04:12:74
  TRACK 250 AUDIO
    TITLE "3:cjc090_1386"
    INDEX 01 04:13:19
  TRACK 251 AUDIO
    TITLE "2:cjc090_1387"
    INDEX 01 04:15:04
  TRACK 252 AUDIO
    TITLE "0:"
    INDEX 01 04:17:30
  TRACK 253 AUDIO
    TITLE "3:cjc090_1388"
    INDEX 01 04:17:52
  TRACK 254 AUDIO
    TITLE "2:cjc090_1389"
    INDEX 01 04:19:02
  TRACK 255 AUDIO
    TITLE "0:"
    INDEX 01 04:20:19
  TRACK 256 AUDIO
    TITLE "3:cjc090_1390"
    INDEX 01 04:20:38
  TRACK 257 AUDIO
    TITLE "2:cjc090_1391"
    INDEX 01 04:21:65
  TRACK 258 AUDIO
    TITLE "0:"
    INDEX 01 04:22:57
  TRACK 259 AUDIO
    TITLE "3:cjc090_1392"
    INDEX 01 04:23:03
  TRACK 260 AUDIO
    TITLE "2:cjc090_1393"
    INDEX 01 04:24:09
  TRACK 261 AUDIO
    TITLE "0:"
    INDEX 01 04:25:28
  TRACK 262 AUDIO
    TITLE "3:cjc090_1394"
    INDEX 01 04:25:49
  TRACK 263 AUDIO
    TITLE "2:cjc090_1395"
    INDEX 01 04:27:19
  TRACK 264 AUDIO
    TITLE "0:"
    INDEX 01 04:29:04
  TRACK 265 AUDIO
    TITLE "3:cjc090_1396"
    INDEX 01 04:29:24
  TRACK 266 AUDIO
    TITLE "2:cjc090_1397"
    INDEX 01 04:30:47
  TRACK 267 AUDIO
    TITLE "0:"
    INDEX 01 04:32:28
  TRACK 268 AUDIO
    TITLE "3:cjc090_1398"
    INDEX 01 04:32:48
  TRACK 269 AUDIO
    TITLE "2:cjc090_1399"
    INDEX 01 04:33:53
  TRACK 270 AUDIO
    TITLE "0:"
    INDEX 01 04:34:41
  TRACK 271 AUDIO
    TITLE "3:cjc090_1400"
    INDEX 01 04:34:60
  TRACK 272 AUDIO
    TITLE "2:cjc090_1401"
    INDEX 01 04:36:08
  TRACK 273 AUDIO
    TITLE "0:"
    INDEX 01 04:37:09
  TRACK 274 AUDIO
    TITLE "3:cjc090_1402"
    INDEX 01 04:37:27
  TRACK 275 AUDIO
    TITLE "2:cjc090_1403"
    INDEX 01 04:38:56
  TRACK 276 AUDIO
    TITLE "0:"
    INDEX 01 04:40:02
  TRACK 277 AUDIO
    TITLE "3:cjc090_1404"
    INDEX 01 04:40:22
  TRACK 278 AUDIO
    TITLE "2:cjc090_1405"
    INDEX 01 04:41:64
  TRACK 279 AUDIO
    TITLE "0:"
    INDEX 01 04:42:73
  TRACK 280 AUDIO
    TITLE "3:cjc090_1406"
    INDEX 01 04:43:18
  TRACK 281 AUDIO
    TITLE "2:cjc090_1407"
    INDEX 01 04:44:62
  TRACK 282 AUDIO
    TITLE "0:"
    INDEX 01 04:45:74
  TRACK 283 AUDIO
    TITLE "3:cjc090_1408"
    INDEX 01 04:46:16
  TRACK 284 AUDIO
    TITLE "2:cjc090_1409"
    INDEX 01 04:47:37
  TRACK 285 AUDIO
    TITLE "0:"
    INDEX 01 04:48:52
  TRACK 286 AUDIO
    TITLE "3:cjc090_1410"
    INDEX 01 04:48:72
  TRACK 287 AUDIO
    TITLE "2:cjc090_1411"
    INDEX 01 04:50:34
  TRACK 288 AUDIO
    TITLE "0:"
    INDEX 01 04:52:19
  TRACK 289 AUDIO
    TITLE "3:cjc090_1412"
    INDEX 01 04:52:40
  TRACK 290 AUDIO
    TITLE "2:cjc090_1413"
    INDEX 01 04:55:07
  TRACK 291 AUDIO
    TITLE "0:"
    INDEX 01 04:57:38
  TRACK 292 AUDIO
    TITLE "3:cjc090_1414"
    INDEX 01 04:57:57
  TRACK 293 AUDIO
    TITLE "2:cjc090_1415"
    INDEX 01 04:58:63
  TRACK 294 AUDIO
    TITLE "0:"
    INDEX 01 05:02:13
  TRACK 295 AUDIO
    TITLE "3:cjc090_1416"
    INDEX 01 05:02:33
  TRACK 296 AUDIO
    TITLE "2:cjc090_1417"
    INDEX 01 05:03:52
  TRACK 297 AUDIO
    TITLE "0:"
    INDEX 01 05:05:37
  TRACK 298 AUDIO
    TITLE "3:cjc090_1418"
    INDEX 01 05:05:57
  TRACK 299 AUDIO
    TITLE "2:cjc090_1419"
    INDEX 01 05:06:72
  TRACK 300 AUDIO
    TITLE "0:"
    INDEX 01 05:08:04
  TRACK 301 AUDIO
    TITLE "3:cjc090_1420"
    INDEX 01 05:08:24
  TRACK 302 AUDIO
    TITLE "2:cjc090_1421"
    INDEX 01 05:09:37
  TRACK 303 AUDIO
    TITLE "0:"
    INDEX 01 05:10:42
  TRACK 304 AUDIO
    TITLE "3:cjc090_1422"
    INDEX 01 05:10:62
  TRACK 305 AUDIO
    TITLE "2:cjc090_1423"
    INDEX 01 05:12:04
  TRACK 306 AUDIO
    TITLE "0:"
    INDEX 01 05:13:60
  TRACK 307 AUDIO
    TITLE "3:cjc090_1424"
    INDEX 01 05:14:05
  TRACK 308 AUDIO
    TITLE "2:cjc090_1425"
    INDEX 01 05:16:13
  TRACK 309 AUDIO
    TITLE "0:"
    INDEX 01 05:18:57
  TRACK 310 AUDIO
    TITLE "3:cjc090_1426"
    INDEX 01 05:19:02
  TRACK 311 AUDIO
    TITLE "2:cjc090_1427"
    INDEX 01 05:21:22
  TRACK 312 AUDIO
    TITLE "0:"
    INDEX 01 05:23:23
  TRACK 313 AUDIO
    TITLE "3:cjc090_1428"
    INDEX 01 05:23:43
  TRACK 314 AUDIO
    TITLE "2:cjc090_1429"
    INDEX 01 05:24:60
  TRACK 315 AUDIO
    TITLE "0:"
    INDEX 01 05:25:61
  TRACK 316 AUDIO
    TITLE "3:cjc090_1430"
    INDEX 01 05:26:06
  TRACK 317 AUDIO
    TITLE "2:cjc090_1431"
    INDEX 01 05:27:19
  TRACK 318 AUDIO
    TITLE "0:"
    INDEX 01 05:28:19
  TRACK 319 AUDIO
    TITLE "3:cjc090_1432"
    INDEX 01 05:28:38
  TRACK 320 AUDIO
    TITLE "2:cjc090_1433"
    INDEX 01 05:29:53
  TRACK 321 AUDIO
    TITLE "0:"
    INDEX 01 05:31:40
  TRACK 322 AUDIO
    TITLE "3:cjc090_1434"
    INDEX 01 05:31:60
  TRACK 323 AUDIO
    TITLE "2:cjc090_1435"
    INDEX 01 05:32:73
  TRACK 324 AUDIO
    TITLE "0:"
    INDEX 01 05:34:53
  TRACK 325 AUDIO
    TITLE "3:cjc090_1436"
    INDEX 01 05:34:72
  TRACK 326 AUDIO
    TITLE "2:cjc090_1437"
    INDEX 01 05:36:10
  TRACK 327 AUDIO
    TITLE "0:"
    INDEX 01 05:37:25
  TRACK 328 AUDIO
    TITLE "3:cjc090_1438"
    INDEX 01 05:37:45
  TRACK 329 AUDIO
    TITLE "2:cjc090_1439"
    INDEX 01 05:38:41
  TRACK 330 AUDIO
    TITLE "0:"
    INDEX 01 05:39:52
  TRACK 331 AUDIO
    TITLE "3:cjc090_1440"
    INDEX 01 05:39:71
  TRACK 332 AUDIO
    TITLE "2:cjc090_1441"
    INDEX 01 05:41:06
  TRACK 333 AUDIO
    TITLE "0:"
    INDEX 01 05:43:69
  TRACK 334 AUDIO
    TITLE "3:cjc090_1442"
    INDEX 01 05:44:16
  TRACK 335 AUDIO
    TITLE "2:cjc090_1443"
    INDEX 01 05:45:37
  TRACK 336 AUDIO
    TITLE "0:"
    INDEX 01 05:47:16
  TRACK 337 AUDIO
    TITLE "3:cjc090_1444"
    INDEX 01 05:47:34
  TRACK 338 AUDIO
    TITLE "2:cjc090_1445"
    INDEX 01 05:48:53
  TRACK 339 AUDIO
    TITLE "0:"
    INDEX 01 05:49:60
  TRACK 340 AUDIO
    TITLE "3:cjc090_1446"
    INDEX 01 05:50:06
  TRACK 341 AUDIO
    TITLE "2:cjc090_1447"
    INDEX 01 05:51:27
  TRACK 342 AUDIO
    TITLE "0:"
    INDEX 01 05:52:50
  TRACK 343 AUDIO
    TITLE "3:cjc090_1448"
    INDEX 01 05:52:70
  TRACK 344 AUDIO
    TITLE "2:cjc090_1449"
    INDEX 01 05:54:26
  TRACK 345 AUDIO
    TITLE "0:"
    INDEX 01 05:56:07
  TRACK 346 AUDIO
    TITLE "3:cjc090_1450"
    INDEX 01 05:56:29
  TRACK 347 AUDIO
    TITLE "2:cjc090_1451"
    INDEX 01 05:57:38
  TRACK 348 AUDIO
    TITLE "0:"
    INDEX 01 05:58:41
  TRACK 349 AUDIO
    TITLE "3:cjc090_1452"
    INDEX 01 05:58:61
  TRACK 350 AUDIO
    TITLE "2:cjc090_1453"
    INDEX 01 06:00:26
  TRACK 351 AUDIO
    TITLE "0:"
    INDEX 01 06:01:61
  TRACK 352 AUDIO
    TITLE "3:cjc090_1454"
    INDEX 01 06:02:08
  TRACK 353 AUDIO
    TITLE "2:cjc090_1455"
    INDEX 01 06:03:25
  TRACK 354 AUDIO
    TITLE "0:"
    INDEX 01 06:05:10
  TRACK 355 AUDIO
    TITLE "3:cjc090_1456"
    INDEX 01 06:05:32
  TRACK 356 AUDIO
    TITLE "2:cjc090_1457"
    INDEX 01 06:06:53
  TRACK 357 AUDIO
    TITLE "0:"
    INDEX 01 06:08:40
  TRACK 358 AUDIO
    TITLE "3:cjc090_1458"
    INDEX 01 06:08:59
  TRACK 359 AUDIO
    TITLE "2:cjc090_1459"
    INDEX 01 06:10:05
  TRACK 360 AUDIO
    TITLE "0:"
    INDEX 01 06:12:16
  TRACK 361 AUDIO
    TITLE "3:cjc090_1460"
    INDEX 01 06:12:36
  TRACK 362 AUDIO
    TITLE "2:cjc090_1461"
    INDEX 01 06:13:39
  TRACK 363 AUDIO
    TITLE "0:"
    INDEX 01 06:14:42
  TRACK 364 AUDIO
    TITLE "3:cjc090_1462"
    INDEX 01 06:14:64
  TRACK 365 AUDIO
    TITLE "2:cjc090_1463"
    INDEX 01 06:15:65
  TRACK 366 AUDIO
    TITLE "0:"
    INDEX 01 06:17:13
  TRACK 367 AUDIO
    TITLE "3:cjc090_1464"
    INDEX 01 06:17:33
  TRACK 368 AUDIO
    TITLE "2:cjc090_1465"
    INDEX 01 06:18:56
  TRACK 369 AUDIO
    TITLE "0:"
    INDEX 01 06:21:03
  TRACK 370 AUDIO
    TITLE "3:cjc090_1466"
    INDEX 01 06:21:25
  TRACK 371 AUDIO
    TITLE "2:cjc090_1467"
    INDEX 01 06:22:50
  TRACK 372 AUDIO
    TITLE "0:"
    INDEX 01 06:23:61
  TRACK 373 AUDIO
    TITLE "3:cjc090_1468"
    INDEX 01 06:24:07
  TRACK 374 AUDIO
    TITLE "2:cjc090_1469"
    INDEX 01 06:25:28
  TRACK 375 AUDIO
    TITLE "0:"
    INDEX 01 06:26:32
  TRACK 376 AUDIO
    TITLE "3:cjc090_1470"
    INDEX 01 06:26:53
  TRACK 377 AUDIO
    TITLE "2:cjc090_1471"
    INDEX 01 06:27:74
  TRACK 378 AUDIO
    TITLE "0:"
    INDEX 01 06:29:12
  TRACK 379 AUDIO
    TITLE "3:cjc090_1472"
    INDEX 01 06:29:32
  TRACK 380 AUDIO
    TITLE "2:cjc090_1473"
    INDEX 01 06:30:53
  TRACK 381 AUDIO
    TITLE "0:"
    INDEX 01 06:33:02
  TRACK 382 AUDIO
    TITLE "3:cjc090_1474"
    INDEX 01 06:33:24
  TRACK 383 AUDIO
    TITLE "2:cjc090_1475"
    INDEX 01 06:34:61
  TRACK 384 AUDIO
    TITLE "0:"
    INDEX 01 06:36:40
  TRACK 385 AUDIO
    TITLE "3:cjc090_1476"
    INDEX 01 06:36:61
  TRACK 386 AUDIO
    TITLE "2:cjc090_1477"
    INDEX 01 06:37:71
  TRACK 387 AUDIO
    TITLE "0:"
    INDEX 01 06:39:19
  TRACK 388 AUDIO
    TITLE "3:cjc090_1478"
    INDEX 01 06:39:38
  TRACK 389 AUDIO
    TITLE "2:cjc090_1479"
    INDEX 01 06:40:55
  TRACK 390 AUDIO
    TITLE "0:"
    INDEX 01 06:42:25
  TRACK 391 AUDIO
    TITLE "3:cjc090_1480"
    INDEX 01 06:42:46
  TRACK 392 AUDIO
    TITLE "2:cjc090_1481"
    INDEX 01 06:43:60
  TRACK 393 AUDIO
    TITLE "0:"
    INDEX 01 06:44:63
  TRACK 394 AUDIO
    TITLE "3:cjc090_1482"
    INDEX 01 06:45:09
  TRACK 395 AUDIO
    TITLE "2:cjc090_1483"
    INDEX 01 06:46:25
  TRACK 396 AUDIO
    TITLE "0:"
    INDEX 01 06:47:30
  TRACK 397 AUDIO
    TITLE "3:cjc090_1484"
    INDEX 01 06:47:51
  TRACK 398 AUDIO
    TITLE "2:cjc090_1485"
    INDEX 01 06:48:71
  TRACK 399 AUDIO
    TITLE "0:"
    INDEX 01 06:50:15
  TRACK 400 AUDIO
    TITLE "3:cjc090_1486"
    INDEX 01 06:50:36
  TRACK 401 AUDIO
    TITLE "2:cjc090_1487"
    INDEX 01 06:51:55
  TRACK 402 AUDIO
    TITLE "0:"
    INDEX 01 06:52:72
  TRACK 403 AUDIO
    TITLE "3:cjc090_1488"
    INDEX 01 06:53:17
  TRACK 404 AUDIO
    TITLE "2:cjc090_1489"
    INDEX 01 06:54:50
  TRACK 405 AUDIO
    TITLE "0:"
    INDEX 01 06:55:67
  TRACK 406 AUDIO
    TITLE "3:cjc090_1490"
    INDEX 01 06:56:11
  TRACK 407 AUDIO
    TITLE "2:cjc090_1491"
    INDEX 01 06:57:22
  TRACK 408 AUDIO
    TITLE "0:"
    INDEX 01 06:58:51
  TRACK 409 AUDIO
    TITLE "3:cjc090_1492"
    INDEX 01 06:58:71
  TRACK 410 AUDIO
    TITLE "2:cjc090_1493"
    INDEX 01 06:59:66
  TRACK 411 AUDIO
    TITLE "0:"
    INDEX 01 07:00:64
  TRACK 412 AUDIO
    TITLE "3:cjc090_1494"
    INDEX 01 07:01:09
  TRACK 413 AUDIO
    TITLE "2:cjc090_1495"
    INDEX 01 07:02:18
  TRACK 414 AUDIO
    TITLE "0:"
    INDEX 01 07:03:64
  TRACK 415 AUDIO
    TITLE "3:cjc090_1496"
    INDEX 01 07:04:11
  TRACK 416 AUDIO
    TITLE "2:cjc090_1497"
    INDEX 01 07:05:16
  TRACK 417 AUDIO
    TITLE "0:"
    INDEX 01 07:06:27
  TRACK 418 AUDIO
    TITLE "3:cjc090_1498"
    INDEX 01 07:06:47
  TRACK 419 AUDIO
    TITLE "2:cjc090_1499"
    INDEX 01 07:07:74
  TRACK 420 AUDIO
    TITLE "0:"
    INDEX 01 07:09:10
  TRACK 421 AUDIO
    TITLE "3:cjc090_1500"
    INDEX 01 07:09:30
  TRACK 422 AUDIO
    TITLE "2:cjc090_1501"
    INDEX 01 07:10:70
  TRACK 423 AUDIO
    TITLE "0:"
    INDEX 01 07:13:33
  TRACK 424 AUDIO
    TITLE "3:cjc090_1502"
    INDEX 01 07:13:53
  TRACK 425 AUDIO
    TITLE "2:cjc090_1503"
    INDEX 01 07:14:64
  TRACK 426 AUDIO
    TITLE "0:"
    INDEX 01 07:16:32
  TRACK 427 AUDIO
    TITLE "3:cjc090_1504"
    INDEX 01 07:16:51
  TRACK 428 AUDIO
    TITLE "2:cjc090_1505"
    INDEX 01 07:17:66
  TRACK 429 AUDIO
    TITLE "0:"
    INDEX 01 07:19:16
  TRACK 430 AUDIO
    TITLE "3:cjc090_1506"
    INDEX 01 07:19:36
  TRACK 431 AUDIO
    TITLE "2:cjc090_1507"
    INDEX 01 07:20:35
  TRACK 432 AUDIO
    TITLE "0:"
    INDEX 01 07:22:60
  TRACK 433 AUDIO
    TITLE "3:cjc090_1508"
    INDEX 01 07:23:04
  TRACK 434 AUDIO
    TITLE "2:cjc090_1509"
    INDEX 01 07:24:23
  TRACK 435 AUDIO
    TITLE "0:"
    INDEX 01 07:26:10
  TRACK 436 AUDIO
    TITLE "3:cjc090_1510"
    INDEX 01 07:26:30
  TRACK 437 AUDIO
    TITLE "2:cjc090_1511"
    INDEX 01 07:27:59
  TRACK 438 AUDIO
    TITLE "0:"
    INDEX 01 07:28:47
  TRACK 439 AUDIO
    TITLE "3:cjc090_1512"
    INDEX 01 07:28:66
  TRACK 440 AUDIO
    TITLE "2:cjc090_1513"
    INDEX 01 07:30:04
  TRACK 441 AUDIO
    TITLE "0:"
    INDEX 01 07:31:14
  TRACK 442 AUDIO
    TITLE "3:cjc090_1514"
    INDEX 01 07:31:33
  TRACK 443 AUDIO
    TITLE "2:cjc090_1515"
    INDEX 01 07:32:64
  TRACK 444 AUDIO
    TITLE "0:"
    INDEX 01 07:34:28
  TRACK 445 AUDIO
    TITLE "3:cjc090_1516"
    INDEX 01 07:34:49
  TRACK 446 AUDIO
    TITLE "2:cjc090_1517"
    INDEX 01 07:35:56
  TRACK 447 AUDIO
    TITLE "0:"
    INDEX 01 07:37:30
  TRACK 448 AUDIO
    TITLE "3:cjc090_1518"
    INDEX 01 07:37:51
  TRACK 449 AUDIO
    TITLE "2:cjc090_1519"
    INDEX 01 07:38:72
  TRACK 450 AUDIO
    TITLE "0:"
    INDEX 01 07:40:12
  TRACK 451 AUDIO
    TITLE "3:cjc090_1520"
    INDEX 01 07:40:32
  TRACK 452 AUDIO
    TITLE "2:cjc090_1521"
    INDEX 01 07:41:43
  TRACK 453 AUDIO
    TITLE "0:"
    INDEX 01 07:42:51
  TRACK 454 AUDIO
    TITLE "3:cjc090_1522"
    INDEX 01 07:42:72
  TRACK 455 AUDIO
    TITLE "2:cjc090_1523"
    INDEX 01 07:44:16
  TRACK 456 AUDIO
    TITLE "0:"
    INDEX 01 07:45:41
  TRACK 457 AUDIO
    TITLE "3:cjc090_1524"
    INDEX 01 07:45:61
  TRACK 458 AUDIO
    TITLE "2:cjc090_1525"
    INDEX 01 07:47:11
  TRACK 459 AUDIO
    TITLE "0:"
    INDEX 01 07:48:36
  TRACK 460 AUDIO
    TITLE "3:cjc090_1526"
    INDEX 01 07:48:55
  TRACK 461 AUDIO
    TITLE "2:cjc090_1527"
    INDEX 01 07:49:66
  TRACK 462 AUDIO
    TITLE "0:"
    INDEX 01 07:54:13
  TRACK 463 AUDIO
    TITLE "3:cjc090_1528"
    INDEX 01 07:54:32
  TRACK 464 AUDIO
    TITLE "2:cjc090_1529"
    INDEX 01 07:55:61
  TRACK 465 AUDIO
    TITLE "0:"
    INDEX 01 07:57:05
  TRACK 466 AUDIO
    TITLE "3:cjc090_1530"
    INDEX 01 07:57:25
  TRACK 467 AUDIO
    TITLE "2:cjc090_1531"
    INDEX 01 07:58:36
  TRACK 468 AUDIO
    TITLE "0:"
    INDEX 01 07:59:57
  TRACK 469 AUDIO
    TITLE "3:cjc090_1532"
    INDEX 01 08:00:03
  TRACK 470 AUDIO
    TITLE "2:cjc090_1533"
    INDEX 01 08:01:17
  TRACK 471 AUDIO
    TITLE "0:"
    INDEX 01 08:03:14
  TRACK 472 AUDIO
    TITLE "3:cjc090_1534"
    INDEX 01 08:03:33
  TRACK 473 AUDIO
    TITLE "2:cjc090_1535"
    INDEX 01 08:05:01
  TRACK 474 AUDIO
    TITLE "0:"
    INDEX 01 08:06:10
  TRACK 475 AUDIO
    TITLE "3:cjc090_1536"
    INDEX 01 08:06:31
  TRACK 476 AUDIO
    TITLE "2:cjc090_1537"
    INDEX 01 08:07:49
  TRACK 477 AUDIO
    TITLE "0:"
    INDEX 01 08:08:70
  TRACK 478 AUDIO
    TITLE "3:cjc090_1538"
    INDEX 01 08:09:16
  TRACK 479 AUDIO
    TITLE "2:cjc090_1539"
    INDEX 01 08:10:27
  TRACK 480 AUDIO
    TITLE "0:"
    INDEX 01 08:12:24
  TRACK 481 AUDIO
    TITLE "3:cjc090_1540"
    INDEX 01 08:12:44
  TRACK 482 AUDIO
    TITLE "2:cjc090_1541"
    INDEX 01 08:14:00
  TRACK 483 AUDIO
    TITLE "0:"
    INDEX 01 08:15:21
  TRACK 484 AUDIO
    TITLE "3:cjc090_1542"
    INDEX 01 08:15:40
  TRACK 485 AUDIO
    TITLE "2:cjc090_1543"
    INDEX 01 08:16:67
  TRACK 486 AUDIO
    TITLE "0:"
    INDEX 01 08:17:65
  TRACK 487 AUDIO
    TITLE "3:cjc090_1544"
    INDEX 01 08:18:09
  TRACK 488 AUDIO
    TITLE "2:cjc090_1545"
    INDEX 01 08:19:26
  TRACK 489 AUDIO
    TITLE "0:"
    INDEX 01 08:21:02
  TRACK 490 AUDIO
    TITLE "3:cjc090_1546"
    INDEX 01 08:21:23
  TRACK 491 AUDIO
    TITLE "2:cjc090_1547"
    INDEX 01 08:22:50
  TRACK 492 AUDIO
    TITLE "0:"
    INDEX 01 08:24:55
  TRACK 493 AUDIO
    TITLE "3:cjc090_1548"
    INDEX 01 08:25:01
  TRACK 494 AUDIO
    TITLE "2:cjc090_1549"
    INDEX 01 08:26:07
  TRACK 495 AUDIO
    TITLE "0:"
    INDEX 01 08:27:00
  TRACK 496 AUDIO
    TITLE "3:cjc090_1550"
    INDEX 01 08:27:22
  TRACK 497 AUDIO
    TITLE "2:cjc090_1551"
    INDEX 01 08:28:41
  TRACK 498 AUDIO
    TITLE "0:"
    INDEX 01 08:29:54
  TRACK 499 AUDIO
    TITLE "3:cjc090_1552"
    INDEX 01 08:30:01
  TRACK 500 AUDIO
    TITLE "2:cjc090_1553"
    INDEX 01 08:31:14
  TRACK 501 AUDIO
    TITLE "0:"
    INDEX 01 08:33:11
  TRACK 502 AUDIO
    TITLE "3:cjc090_1554"
    INDEX 01 08:33:28
  TRACK 503 AUDIO
    TITLE "2:cjc090_1555"
    INDEX 01 08:34:47
  TRACK 504 AUDIO
    TITLE "0:"
    INDEX 01 08:36:13
  TRACK 505 AUDIO
    TITLE "3:cjc090_1556"
    INDEX 01 08:36:35
  TRACK 506 AUDIO
    TITLE "2:cjc090_1557"
    INDEX 01 08:37:46
  TRACK 507 AUDIO
    TITLE "0:"
    INDEX 01 08:38:51
  TRACK 508 AUDIO
    TITLE "3:cjc090_1558"
    INDEX 01 08:39:00
  TRACK 509 AUDIO
    TITLE "2:cjc090_1559"
    INDEX 01 08:40:19
  TRACK 510 AUDIO
    TITLE "0:"
    INDEX 01 08:41:61
  TRACK 511 AUDIO
    TITLE "3:cjc090_1560"
    INDEX 01 08:42:06
  TRACK 512 AUDIO
    TITLE "2:cjc090_1561"
    INDEX 01 08:43:15
  TRACK 513 AUDIO
    TITLE "0:"
    INDEX 01 08:44:63
  TRACK 514 AUDIO
    TITLE "3:cjc090_1562"
    INDEX 01 08:45:08
  TRACK 515 AUDIO
    TITLE "2:cjc090_1563"
    INDEX 01 08:46:33
  TRACK 516 AUDIO
    TITLE "0:"
    INDEX 01 08:48:40
  TRACK 517 AUDIO
    TITLE "3:cjc090_1564"
    INDEX 01 08:48:61
  TRACK 518 AUDIO
    TITLE "2:cjc090_1565"
    INDEX 01 08:49:65
  TRACK 519 AUDIO
    TITLE "0:"
    INDEX 01 08:51:34
  TRACK 520 AUDIO
    TITLE "3:cjc090_1566"
    INDEX 01 08:51:58
  TRACK 521 AUDIO
    TITLE "2:cjc090_1567"
    INDEX 01 08:53:04
  TRACK 522 AUDIO
    TITLE "0:"
    INDEX 01 08:54:58
  TRACK 523 AUDIO
    TITLE "3:cjc090_1568"
    INDEX 01 08:55:04
  TRACK 524 AUDIO
    TITLE "2:cjc090_1569"
    INDEX 01 08:56:24
  TRACK 525 AUDIO
    TITLE "0:"
    INDEX 01 08:57:64
  TRACK 526 AUDIO
    TITLE "3:cjc090_1570"
    INDEX 01 08:58:11
  TRACK 527 AUDIO
    TITLE "2:cjc090_1571"
    INDEX 01 08:59:18
  TRACK 528 AUDIO
    TITLE "0:"
    INDEX 01 09:00:29
  TRACK 529 AUDIO
    TITLE "3:cjc090_1572"
    INDEX 01 09:00:49
  TRACK 530 AUDIO
    TITLE "2:cjc090_1573"
    INDEX 01 09:02:03
  TRACK 531 AUDIO
    TITLE "0:"
    INDEX 01 09:03:18
  TRACK 532 AUDIO
    TITLE "3:cjc090_1574"
    INDEX 01 09:03:37
  TRACK 533 AUDIO
    TITLE "2:cjc090_1575"
    INDEX 01 09:04:50
  TRACK 534 AUDIO
    TITLE "0:"
    INDEX 01 09:05:60
  TRACK 535 AUDIO
    TITLE "3:cjc090_1576"
    INDEX 01 09:06:04
  TRACK 536 AUDIO
    TITLE "2:cjc090_1577"
    INDEX 01 09:07:21
  TRACK 537 AUDIO
    TITLE "0:"
    INDEX 01 09:08:38
  TRACK 538 AUDIO
    TITLE "3:cjc090_1578"
    INDEX 01 09:08:58
  TRACK 539 AUDIO
    TITLE "2:cjc090_1579"
    INDEX 01 09:10:10
  TRACK 540 AUDIO
    TITLE "0:"
    INDEX 01 09:11:37
  TRACK 541 AUDIO
    TITLE "3:cjc090_1580"
    INDEX 01 09:11:56
  TRACK 542 AUDIO
    TITLE "2:cjc090_1581"
    INDEX 01 09:13:02
  TRACK 543 AUDIO
    TITLE "0:"
    INDEX 01 09:14:66
  TRACK 544 AUDIO
    TITLE "3:cjc090_1582"
    INDEX 01 09:15:11
  TRACK 545 AUDIO
    TITLE "2:cjc090_1583"
    INDEX 01 09:16:16
  TRACK 546 AUDIO
    TITLE "0:"
    INDEX 01 09:17:16
  TRACK 547 AUDIO
    TITLE "3:cjc090_1584"
    INDEX 01 09:17:33
  TRACK 548 AUDIO
    TITLE "2:cjc090_1585"
    INDEX 01 09:18:62
  TRACK 549 AUDIO
    TITLE "0:"
    INDEX 01 09:19:68
  TRACK 550 AUDIO
    TITLE "3:cjc090_1586"
    INDEX 01 09:20:14
  TRACK 551 AUDIO
    TITLE "2:cjc090_1587"
    INDEX 01 09:21:20
  TRACK 552 AUDIO
    TITLE "0:"
    INDEX 01 09:23:71
  TRACK 553 AUDIO
    TITLE "3:cjc090_1588"
    INDEX 01 09:24:16
  TRACK 554 AUDIO
    TITLE "2:cjc090_1589"
    INDEX 01 09:25:53
  TRACK 555 AUDIO
    TITLE "0:"
    INDEX 01 09:26:52
  TRACK 556 AUDIO
    TITLE "3:cjc090_1590"
    INDEX 01 09:26:72
  TRACK 557 AUDIO
    TITLE "2:cjc090_1591"
    INDEX 01 09:28:06
  TRACK 558 AUDIO
    TITLE "0:"
    INDEX 01 09:29:46
  TRACK 559 AUDIO
    TITLE "3:cjc090_1592"
    INDEX 01 09:29:68
  TRACK 560 AUDIO
    TITLE "2:cjc090_1593"
    INDEX 01 09:30:71
  TRACK 561 AUDIO
    TITLE "0:"
    INDEX 01 09:34:40
  TRACK 562 AUDIO
    TITLE "3:cjc090_1594"
    INDEX 01 09:34:61
  TRACK 563 AUDIO
    TITLE "2:cjc090_1595"
    INDEX 01 09:36:09
  TRACK 564 AUDIO
    TITLE "0:"
    INDEX 01 09:37:17
  TRACK 565 AUDIO
    TITLE "3:cjc090_1596"
    INDEX 01 09:37:36
  TRACK 566 AUDIO
    TITLE "2:cjc090_1597"
    INDEX 01 09:39:10
  TRACK 567 AUDIO
    TITLE "0:"
    INDEX 01 09:41:09
  TRACK 568 AUDIO
    TITLE "3:cjc090_1598"
    INDEX 01 09:41:28
  TRACK 569 AUDIO
    TITLE "2:cjc090_1599"
    INDEX 01 09:42:33
  TRACK 570 AUDIO
    TITLE "0:"
    INDEX 01 09:45:06
  TRACK 571 AUDIO
    TITLE "3:cjc090_1600"
    INDEX 01 09:45:26
  TRACK 572 AUDIO
    TITLE "2:cjc090_1601"
    INDEX 01 09:46:45
  TRACK 573 AUDIO
    TITLE "0:"
    INDEX 01 09:50:17
  TRACK 574 AUDIO
    TITLE "3:cjc090_1602"
    INDEX 01 09:50:39
  TRACK 575 AUDIO
    TITLE "2:cjc090_1603"
    INDEX 01 09:51:46
  TRACK 576 AUDIO
    TITLE "0:"
    INDEX 01 09:52:61
  TRACK 577 AUDIO
    TITLE "3:cjc090_1604"
    INDEX 01 09:53:06
  TRACK 578 AUDIO
    TITLE "2:cjc090_1605"
    INDEX 01 09:54:39
  TRACK 579 AUDIO
    TITLE "0:"
    INDEX 01 09:55:34
  TRACK 580 AUDIO
    TITLE "3:cjc090_1606"
    INDEX 01 09:55:58
  TRACK 581 AUDIO
    TITLE "2:cjc090_1607"
    INDEX 01 09:56:65
  TRACK 582 AUDIO
    TITLE "0:"
    INDEX 01 09:58:58
  TRACK 583 AUDIO
    TITLE "3:cjc090_1608"
    INDEX 01 09:59:04
  TRACK 584 AUDIO
    TITLE "2:cjc090_1609"
    INDEX 01 10:00:14
  TRACK 585 AUDIO
    TITLE "0:"
    INDEX 01 10:01:29
  TRACK 586 AUDIO
    TITLE "3:cjc090_1610"
    INDEX 01 10:01:48
  TRACK 587 AUDIO
    TITLE "2:cjc090_1611"
    INDEX 01 10:02:60
  TRACK 588 AUDIO
    TITLE "0:"
    INDEX 01 10:03:61
  TRACK 589 AUDIO
    TITLE "3:cjc090_1612"
    INDEX 01 10:04:10
  TRACK 590 AUDIO
    TITLE "2:cjc090_1613"
    INDEX 01 10:05:29
  TRACK 591 AUDIO
    TITLE "0:"
    INDEX 01 10:07:43
  TRACK 592 AUDIO
    TITLE "3:cjc090_1614"
    INDEX 01 10:07:63
  TRACK 593 AUDIO
    TITLE "2:cjc090_1615"
    INDEX 01 10:08:64
  TRACK 594 AUDIO
    TITLE "0:"
    INDEX 01 10:09:71
